<svg width="36" height="36" viewBox="0 0 36 36" fill="none" xmlns="http://www.w3.org/2000/svg">
<path d="M0 8C0 3.58172 3.58172 0 8 0H28C32.4183 0 36 3.58172 36 8V28C36 32.4183 32.4183 36 28 36H8C3.58172 36 0 32.4183 0 28V8Z" fill="#E12AFB"/>
<path d="M15.1071 11.4476C15.7051 9.69761 18.1231 9.64461 18.8321 11.2886L18.8921 11.4486L19.6991 13.8086C19.884 14.3498 20.1829 14.8451 20.5755 15.261C20.9682 15.6769 21.4454 16.0038 21.9751 16.2196L22.1921 16.3006L24.5521 17.1066C26.3021 17.7046 26.3551 20.1226 24.7121 20.8316L24.5521 20.8916L22.1921 21.6986C21.6507 21.8834 21.1552 22.1822 20.7391 22.5749C20.323 22.9675 19.996 23.4448 19.7801 23.9746L19.6991 24.1906L18.8931 26.5516C18.2951 28.3016 15.8771 28.3546 15.1691 26.7116L15.1071 26.5516L14.3011 24.1916C14.1163 23.6502 13.8175 23.1547 13.4248 22.7386C13.0322 22.3225 12.5549 21.9955 12.0251 21.7796L11.8091 21.6986L9.4491 20.8926C7.6981 20.2946 7.6451 17.8766 9.2891 17.1686L9.4491 17.1066L11.8091 16.3006C12.3503 16.1157 12.8456 15.8168 13.2615 15.4242C13.6774 15.0316 14.0043 14.5543 14.2201 14.0246L14.3011 13.8086L15.1071 11.4476Z" fill="#FDF4FF"/>
<path opacity="0.5" d="M25.5305 9.15147C25.3717 9.05248 25.1884 9 25.0013 9C24.7926 8.99987 24.589 9.06509 24.4192 9.1865C24.2493 9.30791 24.1217 9.47943 24.0543 9.677L23.7043 10.704L22.6783 11.054L22.5603 11.102C22.3825 11.1891 22.2345 11.327 22.1351 11.4982C22.0357 11.6695 21.9894 11.8664 22.002 12.064C22.0147 12.2616 22.0857 12.451 22.2061 12.6082C22.3265 12.7654 22.4908 12.8833 22.6783 12.947L23.7053 13.297L24.0553 14.323L24.1033 14.44C24.1903 14.6179 24.3281 14.7659 24.4993 14.8654C24.6705 14.9648 24.8674 15.0113 25.065 14.9987C25.2626 14.9862 25.452 14.9153 25.6092 14.795C25.7665 14.6747 25.8845 14.5104 25.9483 14.323L26.2983 13.296L27.3243 12.946L27.4423 12.898C27.6202 12.8109 27.7681 12.673 27.8675 12.5018C27.9669 12.3305 28.0132 12.1336 28.0006 11.936C27.988 11.7384 27.9169 11.549 27.7965 11.3918C27.6762 11.2346 27.5118 11.1167 27.3243 11.053L26.2973 10.703L25.9473 9.677L25.8993 9.56C25.817 9.392 25.6892 9.25046 25.5305 9.15147Z" fill="#FDF4FF"/>
</svg>
