<svg width="36" height="36" viewBox="0 0 36 36" fill="none" xmlns="http://www.w3.org/2000/svg">
<path d="M0 8C0 3.58172 3.58172 0 8 0H28C32.4183 0 36 3.58172 36 8V28C36 32.4183 32.4183 36 28 36H8C3.58172 36 0 32.4183 0 28V8Z" fill="#EFB100"/>
<path opacity="0.5" d="M8.99963 15.9999C8.99963 12.2286 8.99963 10.343 10.1712 9.17145C11.3428 7.99988 13.2284 7.99988 16.9996 7.99988H18.9996C22.7708 7.99988 24.6565 7.99988 25.828 9.17145C26.9996 10.343 26.9996 12.2286 26.9996 15.9999V19.9999C26.9996 23.7711 26.9996 25.6568 25.828 26.8283C24.6565 27.9999 22.7708 27.9999 18.9996 27.9999H16.9996C13.2284 27.9999 11.3428 27.9999 10.1712 26.8283C8.99963 25.6568 8.99963 23.7711 8.99963 19.9999V15.9999Z" fill="#FEFCE8"/>
<path fill-rule="evenodd" clip-rule="evenodd" d="M13.2499 17.9999C13.2499 17.5857 13.5857 17.2499 13.9999 17.2499H21.9999C22.4141 17.2499 22.7499 17.5857 22.7499 17.9999C22.7499 18.4141 22.4141 18.7499 21.9999 18.7499H13.9999C13.5857 18.7499 13.2499 18.4141 13.2499 17.9999Z" fill="#FEFCE8"/>
<path fill-rule="evenodd" clip-rule="evenodd" d="M13.2499 13.9999C13.2499 13.5857 13.5857 13.2499 13.9999 13.2499H21.9999C22.4141 13.2499 22.7499 13.5857 22.7499 13.9999C22.7499 14.4141 22.4141 14.7499 21.9999 14.7499H13.9999C13.5857 14.7499 13.2499 14.4141 13.2499 13.9999Z" fill="#FEFCE8"/>
<path fill-rule="evenodd" clip-rule="evenodd" d="M13.2499 21.9999C13.2499 21.5857 13.5857 21.2499 13.9999 21.2499H18.9999C19.4141 21.2499 19.7499 21.5857 19.7499 21.9999C19.7499 22.4141 19.4141 22.7499 18.9999 22.7499H13.9999C13.5857 22.7499 13.2499 22.4141 13.2499 21.9999Z" fill="#FEFCE8"/>
</svg>
