<svg width="36" height="36" viewBox="0 0 36 36" fill="none" xmlns="http://www.w3.org/2000/svg">
<path d="M0 8C0 3.58172 3.58172 0 8 0H28C32.4183 0 36 3.58172 36 8V28C36 32.4183 32.4183 36 28 36H8C3.58172 36 0 32.4183 0 28V8Z" fill="#EFB100"/>
<path d="M12.9403 8C13.3561 8 13.6933 8.32421 13.6933 8.72414V10.1849C14.3612 10.1724 15.1098 10.1724 15.9522 10.1724H19.9681C20.8104 10.1724 21.5591 10.1724 22.227 10.1849V8.72414C22.227 8.32421 22.5641 8 22.98 8C23.3958 8 23.733 8.32421 23.733 8.72414V10.2489C25.178 10.3602 26.1267 10.6333 26.8236 11.3036C27.5206 11.9738 27.8046 12.8862 27.9203 14.2759L28 15H8.92456H8V14.2759C8.11571 12.8862 8.3997 11.9738 9.09665 11.3036C9.79361 10.6333 10.7423 10.3602 12.1873 10.2489V8.72414C12.1873 8.32421 12.5244 8 12.9403 8Z" fill="#FEFCE8"/>
<path opacity="0.5" d="M27.9995 20.0001V18.0001C27.9995 17.161 27.9963 15.6653 27.9834 15H8.00916C7.99625 15.6653 7.99952 17.161 7.99952 18.0001V20.0001C7.99952 23.7713 7.99952 25.6569 9.17109 26.8285C10.3427 28.0001 12.2283 28.0001 15.9995 28.0001H19.9995C23.7708 28.0001 25.6564 28.0001 26.828 26.8285C27.9995 25.6569 27.9995 23.7713 27.9995 20.0001Z" fill="#FEFCE8"/>
</svg>
