<svg width="100%" height="100%" viewBox="0 0 36 36" fill="none" xmlns="http://www.w3.org/2000/svg">
<path opacity="0.5" d="M8.00012 17.5C8.00012 14.2125 8.00012 12.5688 8.90808 11.4624C9.0743 11.2599 9.26001 11.0742 9.46255 10.908C10.5689 10 12.2126 10 15.5001 10C18.7876 10 20.4313 10 21.5377 10.908C21.7402 11.0742 21.9259 11.2599 22.0921 11.4624C23.0001 12.5688 23.0001 14.2125 23.0001 17.5V18.5C23.0001 21.7875 23.0001 23.4312 22.0921 24.5376C21.9259 24.7401 21.7402 24.9258 21.5377 25.092C20.4313 26 18.7876 26 15.5001 26C12.2126 26 10.5689 26 9.46255 25.092C9.26001 24.9258 9.0743 24.7401 8.90808 24.5376C8.00012 23.4312 8.00012 21.7875 8.00012 18.5V17.5Z" fill="currentColor"/>
<path d="M23.0001 15.5002L23.6585 15.171C25.6043 14.1981 26.5773 13.7116 27.2887 14.1513C28.0001 14.5909 28.0001 15.6787 28.0001 17.8543V18.1461C28.0001 20.3217 28.0001 21.4094 27.2887 21.8491C26.5773 22.2888 25.6043 21.8023 23.6585 20.8294L23.0001 20.5002V15.5002Z" fill="currentColor"/>
</svg>
