<svg width="100%" height="100%" viewBox="0 0 36 36" fill="none" xmlns="http://www.w3.org/2000/svg">
<path opacity="0.5" d="M15.9502 22.05C16.8812 21.1189 17.3467 20.6534 17.9215 20.6231C17.9741 20.6203 18.0267 20.6203 18.0793 20.6231C18.6541 20.6534 19.1196 21.1189 20.0507 22.05C22.0765 24.0758 23.0894 25.0887 22.8059 25.9627C22.7815 26.0378 22.7512 26.1109 22.7153 26.1812C22.2979 26.9997 20.8654 26.9997 18.0004 26.9997C15.1354 26.9997 13.7029 26.9997 13.2855 26.1812C13.2496 26.1109 13.2193 26.0378 13.195 25.9627C12.9114 25.0887 13.9243 24.0758 15.9502 22.05Z" stroke="currentColor" stroke-width="1.125"/>
<path fill-rule="evenodd" clip-rule="evenodd" d="M20 9C23.7711 9 25.6566 9.00032 26.8281 10.1719C27.9996 11.3435 28 13.2288 28 17C28 20.7711 27.9997 22.6566 26.8281 23.8281C26.02 24.6363 24.8722 24.8871 23 24.9648L12.4434 24.9355C10.8945 24.8301 9.89671 24.5529 9.17188 23.8281C8.00031 22.6566 8 20.7712 8 17C8 13.2288 8.00031 11.3435 9.17188 10.1719C10.3435 9.00037 12.2288 9 16 9H20ZM17.501 14.7217C17.3472 14.5833 17.1103 14.5955 16.9717 14.749C16.8332 14.9029 16.8454 15.1397 16.999 15.2783L17.8477 16.042C18.2415 16.3965 18.5067 16.6373 18.6787 16.8418C18.8437 17.0379 18.8798 17.1524 18.8799 17.25C18.8799 17.3477 18.8436 17.4621 18.6787 17.6582C18.5067 17.8627 18.2414 18.1036 17.8477 18.458L16.999 19.2217C16.8454 19.3602 16.8333 19.5971 16.9717 19.751C17.1103 19.9047 17.3471 19.9168 17.501 19.7783L18.3486 19.0156C18.7258 18.6761 19.0394 18.3954 19.2529 18.1416C19.4734 17.8795 19.6299 17.5976 19.6299 17.25C19.6298 16.9024 19.4734 16.6205 19.2529 16.3584C19.0393 16.1045 18.7259 15.8239 18.3486 15.4844L17.501 14.7217Z" fill="currentColor"/>
</svg>
