<svg width="36" height="36" viewBox="0 0 36 36" fill="none" xmlns="http://www.w3.org/2000/svg">
<path d="M0 8C0 3.58172 3.58172 0 8 0H28C32.4183 0 36 3.58172 36 8V28C36 32.4183 32.4183 36 28 36H8C3.58172 36 0 32.4183 0 28V8Z" fill="#8E51FF"/>
<path d="M10.9788 15.6852C8.99294 14.8909 8 14.4937 8 14.0001C8 13.5066 8.99294 13.1094 10.9788 12.315L13.7873 11.1917C15.7732 10.3973 16.7661 10.0001 18 10.0001C19.2339 10.0001 20.2268 10.3973 22.2127 11.1917L25.0212 12.315C27.0071 13.1094 28 13.5066 28 14.0001C28 14.4937 27.0071 14.8909 25.0212 15.6852L22.2127 16.8086C20.2268 17.6029 19.2339 18.0001 18 18.0001C16.7661 18.0001 15.7732 17.6029 13.7873 16.8086L10.9788 15.6852Z" fill="#F5F3FF"/>
<path fill-rule="evenodd" clip-rule="evenodd" d="M8 14.0001C8 14.4937 8.99294 14.8909 10.9788 15.6852L13.7873 16.8086C15.7732 17.6029 16.7661 18.0001 18 18.0001C19.2339 18.0001 20.2268 17.6029 22.2127 16.8086L25.0212 15.6852C27.0071 14.8909 28 14.4937 28 14.0001C28 13.5066 27.0071 13.1094 25.0212 12.315L22.2127 11.1917C20.2268 10.3973 19.2339 10.0001 18 10.0001C16.7661 10.0001 15.7732 10.3973 13.7873 11.1917L10.9788 12.315C8.99294 13.1094 8 13.5066 8 14.0001Z" fill="#F5F3FF"/>
<path opacity="0.7" d="M11.7661 16.0001L10.9788 16.315C8.99294 17.1094 8 17.5066 8 18.0001C8 18.4936 8.99294 18.8908 10.9788 19.6852L13.7873 20.8086C15.7732 21.6029 16.7661 22.0001 18 22.0001C19.2339 22.0001 20.2268 21.6029 22.2127 20.8086L25.0212 19.6852C27.0071 18.8908 28 18.4936 28 18.0001C28 17.5066 27.0071 17.1094 25.0212 16.315L24.2339 16.0001L22.2127 16.8086C20.2268 17.6029 19.2339 18.0001 18 18.0001C16.7661 18.0001 15.7732 17.6029 13.7873 16.8086L11.7661 16.0001Z" fill="#F5F3FF"/>
<path opacity="0.4" d="M11.7661 20.0001L10.9788 20.315C8.99294 21.1094 8 21.5066 8 22.0001C8 22.4936 8.99294 22.8908 10.9788 23.6852L13.7873 24.8086C15.7732 25.6029 16.7661 26.0001 18 26.0001C19.2339 26.0001 20.2268 25.6029 22.2127 24.8086L25.0212 23.6852C27.0071 22.8908 28 22.4936 28 22.0001C28 21.5066 27.0071 21.1094 25.0212 20.315L24.2339 20.0001L22.2127 20.8086C20.2268 21.6029 19.2339 22.0001 18 22.0001C16.7661 22.0001 15.7732 21.6029 13.7873 20.8086L11.7661 20.0001Z" fill="#F5F3FF"/>
</svg>
