<svg width="512" height="512" viewBox="0 0 512 512" fill="none" xmlns="http://www.w3.org/2000/svg">
<g clip-path="url(#clip0_26239_38984)">
<path d="M0 76.8C0 34.3845 34.3845 0 76.8 0H435.2C477.615 0 512 34.3845 512 76.8V435.2C512 477.615 477.615 512 435.2 512H76.8C34.3845 512 0 477.615 0 435.2V76.8Z" fill="url(#paint0_linear_26239_38984)"/>
<path opacity="0.2" d="M640.665 162.492C457.925 163.869 126.751 109.563 25.2094 8.64257C-121.384 -137.053 195.281 -53.6813 399.32 166.505C603.36 386.691 521.639 441.825 330.45 451.17C195.476 457.767 40.4516 476.251 -133.345 537.349C-524.505 674.862 -751.634 870.479 -1088.06 1007.27" stroke="white" stroke-width="49.9906" stroke-linecap="round"/>
<path d="M137.67 424.716C120.59 424.716 107.597 420.342 98.6918 411.592C89.7862 402.777 85.3335 390.837 85.3335 375.773L117.234 375.97C117.234 382.812 118.929 388.009 122.318 391.561C125.707 395.047 131.223 396.791 138.866 396.791C145.246 396.791 150.297 395.442 154.019 392.745C157.807 390.048 159.701 386.331 159.701 381.595C159.701 375.937 157.342 371.76 152.623 369.063C147.971 366.365 141.491 365.017 133.184 365.017H122.916V338.769H132.985C146.276 338.769 152.922 333.999 152.922 324.461C152.922 320.448 151.626 317.323 149.034 315.086C146.509 312.85 142.987 311.797 138.467 311.929C134.081 311.929 130.526 313.047 127.801 315.284C125.142 317.455 123.514 320.514 122.916 324.461H91.1154C92.2452 312.291 97.1632 302.522 105.869 295.154C114.575 287.72 125.574 284.003 138.866 284.003C152.69 284.003 163.888 287.358 172.461 294.068C181.101 300.778 185.421 309.626 185.421 320.612C185.421 328.243 182.729 334.855 177.346 340.446C172.029 345.972 164.918 349.656 156.013 351.498C166.912 353.011 175.618 356.86 182.131 363.043C188.644 369.161 191.9 376.628 191.9 385.443C191.9 398.074 186.949 407.777 177.047 414.553C167.145 421.328 154.019 424.716 137.67 424.716Z" fill="#FAFCFB"/>
<path d="M256 424.716C240.914 424.716 228.686 420.407 219.315 411.79C210.011 403.106 205.358 391.923 205.358 378.24C205.358 364.491 207.552 344.525 211.938 318.343C213.666 308.015 217.653 300.153 223.9 294.759C230.214 289.365 239.219 286.668 250.916 286.668H274.941V314.494H257.595C250.418 314.494 245.666 315.415 243.34 317.257C241.08 319.099 239.452 323.112 238.455 329.296L235.763 346.663C239.153 342.387 243.572 339.032 249.022 336.598C254.538 334.164 260.486 332.947 266.866 332.947C279.095 332.947 289.163 337.026 297.072 345.183C305.047 353.274 309.034 363.866 309.034 376.957C309.034 391.627 304.283 403.27 294.779 411.888C285.342 420.44 272.416 424.716 256 424.716ZM235.963 378.634C235.963 385.015 237.757 390.048 241.346 393.732C244.935 397.416 249.886 399.258 256.2 399.258C262.447 399.389 267.431 397.58 271.153 393.83C274.875 390.081 276.769 384.95 276.835 378.437C276.835 372.253 274.974 367.385 271.252 363.833C267.597 360.215 262.58 358.406 256.2 358.406C249.886 358.406 244.935 360.215 241.346 363.833C237.757 367.451 235.963 372.385 235.963 378.634Z" fill="#FAFCFB"/>
<path d="M373.932 424.716C357.45 424.716 344.723 419.881 335.751 410.211C326.779 400.54 322.293 386.364 322.293 367.681V341.038C322.293 322.356 326.779 308.179 335.751 298.509C344.723 288.838 357.45 284.003 373.932 284.003C390.746 284.003 403.738 288.773 412.91 298.311C422.081 307.85 426.667 321.829 426.667 340.249V367.681C426.667 386.364 422.048 400.54 412.81 410.211C403.639 419.881 390.679 424.716 373.932 424.716ZM354.393 366.497C354.393 377.549 355.822 385.377 358.679 389.982C361.603 394.521 366.754 396.791 374.131 396.791C381.84 396.791 387.19 394.521 390.181 389.982C393.238 385.377 394.767 377.549 394.767 366.497V339.756C394.767 329.559 393.238 322.389 390.181 318.244C387.19 314.034 381.84 311.929 374.131 311.929C366.754 311.929 361.603 314.034 358.679 318.244C355.822 322.389 354.393 329.559 354.393 339.756V366.497Z" fill="#FAFCFB"/>
<path d="M216.646 266.486C217.291 259.396 217.502 252.303 217.277 245.214C217.154 241.786 216.937 238.358 216.618 234.933C214.624 213.154 209.304 191.702 201.328 171.223L200.663 169.924C182.05 120.193 158.455 96.7896 148.482 87.04C147.485 100.691 145.162 133.844 163.772 182.925L164.437 184.224C182.863 233.132 206.497 256.56 216.646 266.486Z" fill="#FAFCFB"/>
<path d="M269.796 182.925C288.407 133.844 286.081 100.691 285.084 87.04C275.114 96.7896 251.516 120.193 232.57 169.599L231.905 170.898C223.929 191.378 218.612 212.829 216.618 234.608C216.945 238.143 217.167 241.678 217.277 245.214C217.541 252.397 217.406 259.58 216.97 266.764C227.143 256.811 250.735 233.382 269.132 184.549L269.796 182.925Z" fill="#FAFCFB"/>
<path d="M105.608 267.111C111.59 255.409 125.883 227.13 125.883 177.724V176.424C125.551 127.018 111.59 98.739 105.608 87.04C99.2941 98.739 85.3335 127.018 85.3335 176.424V177.724C85.3335 227.13 99.6264 255.409 105.608 267.111Z" fill="#FAFCFB"/>
<path d="M426.005 267.111C427.002 253.46 429.331 220.304 410.718 171.223L410.053 169.924C391.44 120.193 367.509 96.7896 357.539 87.04C357.616 87.8771 357.691 88.7141 357.754 89.5538C358.534 99.4438 358.484 109.356 357.872 119.543C357.825 120.066 357.773 120.592 357.721 121.115C359.847 142.242 365.084 163.043 372.829 182.925L373.494 184.224C392.105 233.63 416.035 257.358 426.005 267.111Z" fill="#FAFCFB"/>
<path d="M289.407 267.111C299.377 257.358 322.975 233.955 341.918 184.549L342.585 183.25C350.369 163.266 355.62 142.355 357.721 121.115C357.773 120.592 357.825 120.066 357.872 119.543C358.484 109.356 358.534 99.4438 357.754 89.5538C357.691 88.7141 357.616 87.8771 357.539 87.04C347.57 96.7896 323.969 120.193 305.359 169.599L304.694 170.898C286.081 220.304 288.078 253.46 289.407 267.111Z" fill="#FAFCFB"/>
</g>
<defs>
<linearGradient id="paint0_linear_26239_38984" x1="78.9943" y1="-3.75852e-06" x2="512" y2="512" gradientUnits="userSpaceOnUse">
<stop stop-color="#0AAE6A"/>
<stop offset="1" stop-color="#15D2CB"/>
</linearGradient>
<clipPath id="clip0_26239_38984">
<path d="M0 76.8C0 34.3845 34.3845 0 76.8 0H435.2C477.615 0 512 34.3845 512 76.8V435.2C512 477.615 477.615 512 435.2 512H76.8C34.3845 512 0 477.615 0 435.2V76.8Z" fill="white"/>
</clipPath>
</defs>
</svg>
