<svg width="1200" height="1200" viewBox="0 0 1200 1200" fill="none" xmlns="http://www.w3.org/2000/svg">
<g clip-path="url(#clip0_2925_21370)">
<path d="M0 180C0 80.5887 80.5888 0 180 0H1020C1119.41 0 1200 80.5888 1200 180V1020C1200 1119.41 1119.41 1200 1020 1200H180C80.5887 1200 0 1119.41 0 1020V180Z" fill="url(#paint0_linear_2925_21370)"/>
<path opacity="0.2" d="M1501.56 380.841C1073.26 384.068 297.072 256.787 59.0838 20.2557C-284.494 -321.218 457.69 -125.816 935.907 390.246C1414.12 906.307 1222.59 1035.53 774.491 1057.43C458.145 1072.89 94.8077 1116.21 -312.528 1259.41C-1229.31 1581.71 -1761.64 2040.18 -2550.13 2360.79" stroke="white" stroke-width="117.166" stroke-linecap="round"/>
<path d="M260.263 802C211.225 802 173.921 789.44 148.353 764.32C122.784 739.011 110 704.73 110 661.478L201.589 662.045C201.589 681.688 206.454 696.609 216.186 706.808C225.917 716.818 241.754 721.823 263.697 721.823C282.015 721.823 296.517 717.951 307.202 710.208C318.078 702.464 323.516 691.792 323.516 678.194C323.516 661.95 316.743 649.957 303.195 642.213C289.838 634.469 271.234 630.597 247.383 630.597H217.903V555.237H246.811C284.973 555.237 304.054 541.544 304.054 514.157C304.054 502.636 300.333 493.664 292.891 487.243C285.641 480.821 275.528 477.799 262.553 478.177C249.959 478.177 239.751 481.388 231.928 487.809C224.295 494.042 219.62 502.825 217.903 514.157H126.6C129.844 479.216 143.964 451.168 168.96 430.014C193.956 408.671 225.535 398 263.697 398C303.386 398 335.537 407.633 360.152 426.898C384.957 446.163 397.36 471.566 397.36 503.108C397.36 525.017 389.632 543.999 374.176 560.053C358.912 575.919 338.495 586.496 312.926 591.784C344.219 596.128 369.215 607.177 387.915 624.931C406.614 642.496 415.964 663.934 415.964 689.243C415.964 725.506 401.748 753.365 373.318 772.819C344.887 792.273 307.202 802 260.263 802Z" fill="#FAFCFB"/>
<path d="M600 802C556.686 802 521.577 789.629 494.673 764.886C467.96 739.955 454.603 707.847 454.603 668.561C454.603 629.086 460.9 571.763 473.493 496.592C478.454 466.939 489.903 444.368 507.839 428.881C525.966 413.393 551.82 405.649 585.403 405.649H654.381V485.543H604.579C583.972 485.543 570.329 488.187 563.651 493.475C557.163 498.764 552.488 510.285 549.626 528.039L541.898 577.902C551.63 565.625 564.319 555.993 579.965 549.004C595.802 542.016 612.88 538.522 631.197 538.522C666.306 538.522 695.214 550.232 717.921 573.652C740.818 596.884 752.266 627.292 752.266 664.878C752.266 706.997 738.623 740.427 711.338 765.17C684.243 789.723 647.13 802 600 802ZM542.471 669.694C542.471 688.015 547.623 702.464 557.926 713.041C568.23 723.618 582.445 728.906 600.572 728.906C618.509 729.284 632.819 724.09 643.505 713.324C654.19 702.558 659.628 687.826 659.819 669.128C659.819 651.374 654.476 637.397 643.791 627.198C633.296 616.81 618.89 611.616 600.572 611.616C582.445 611.616 568.23 616.81 557.926 627.198C547.623 637.586 542.471 651.751 542.471 669.694Z" fill="#FAFCFB"/>
<path d="M938.592 802C891.271 802 854.731 788.118 828.972 760.353C803.213 732.589 790.333 691.887 790.333 638.247V561.753C790.333 508.113 803.213 467.411 828.972 439.647C854.731 411.882 891.271 398 938.592 398C986.867 398 1024.17 411.693 1050.5 439.08C1076.83 466.467 1090 506.602 1090 559.487V638.247C1090 691.887 1076.74 732.589 1050.22 760.353C1023.88 788.118 986.676 802 938.592 802ZM882.494 634.847C882.494 666.578 886.597 689.054 894.801 702.275C903.197 715.307 917.985 721.823 939.165 721.823C961.299 721.823 976.659 715.307 985.245 702.275C994.023 689.054 998.411 666.578 998.411 634.847V558.07C998.411 528.795 994.023 508.208 985.245 496.309C976.659 484.221 961.299 478.177 939.165 478.177C917.985 478.177 903.197 484.221 894.801 496.309C886.597 508.208 882.494 528.795 882.494 558.07V634.847Z" fill="#FAFCFB"/>
</g>
<defs>
<linearGradient id="paint0_linear_2925_21370" x1="185.143" y1="-8.80903e-06" x2="1200" y2="1200" gradientUnits="userSpaceOnUse">
<stop stop-color="#0AAE6A"/>
<stop offset="1" stop-color="#15D2CB"/>
</linearGradient>
<clipPath id="clip0_2925_21370">
<path d="M0 180C0 80.5887 80.5888 0 180 0H1020C1119.41 0 1200 80.5888 1200 180V1020C1200 1119.41 1119.41 1200 1020 1200H180C80.5887 1200 0 1119.41 0 1020V180Z" fill="white"/>
</clipPath>
</defs>
</svg>
