<svg width="114" height="40" viewBox="0 0 114 40" fill="none" xmlns="http://www.w3.org/2000/svg">
<g clip-path="url(#clip0_2566_76827)">
<path d="M0 6C0 2.68629 2.68629 0 6 0H34C37.3137 0 40 2.68629 40 6V34C40 37.3137 37.3137 40 34 40H6C2.68629 40 0 37.3137 0 34V6Z" fill="url(#paint0_linear_2566_76827)"/>
<path d="M16.2268 28.5764C16.2887 27.8963 16.3089 27.216 16.2873 26.5359C16.2755 26.2071 16.2547 25.8783 16.2241 25.5498C16.0329 23.4607 15.5229 21.4031 14.7581 19.4387L14.6944 19.314C12.9097 14.5437 10.6474 12.2988 9.69121 11.3636C9.59562 12.6731 9.37283 15.8532 11.1572 20.5611L11.2209 20.6858C12.9877 25.3771 15.2537 27.6243 16.2268 28.5764Z" fill="#FAFCFB"/>
<path d="M21.3229 20.5611C23.1073 15.8532 22.8842 12.6731 22.7887 11.3636C21.8327 12.2988 19.5701 14.5437 17.7536 19.2828L17.6899 19.4075C16.9251 21.3719 16.4153 23.4295 16.2241 25.5186C16.2555 25.8577 16.2768 26.1968 16.2873 26.5359C16.3126 27.225 16.2997 27.914 16.2578 28.6031C17.2332 27.6484 19.4953 25.4011 21.2592 20.7169L21.3229 20.5611Z" fill="#FAFCFB"/>
<path d="M5.58044 28.6364C6.154 27.5139 7.52441 24.8013 7.52441 20.0622V19.9375C7.49255 15.1984 6.154 12.4858 5.58044 11.3636C4.97503 12.4858 3.63647 15.1984 3.63647 19.9375V20.0622C3.63647 24.8013 5.00689 27.5139 5.58044 28.6364Z" fill="#FAFCFB"/>
<path d="M36.3003 28.6364C36.3959 27.3269 36.6192 24.1466 34.8346 19.4387L34.7708 19.314C32.9862 14.5437 30.6917 12.2988 29.7358 11.3636C29.7431 11.4439 29.7503 11.5242 29.7563 11.6048C29.8311 12.5534 29.8264 13.5042 29.7676 14.4814C29.7632 14.5316 29.7582 14.582 29.7532 14.6322C29.957 16.6587 30.4592 18.654 31.2018 20.5611L31.2655 20.6858C33.0499 25.4249 35.3444 27.7009 36.3003 28.6364Z" fill="#FAFCFB"/>
<path d="M23.2032 28.6364C24.1591 27.7009 26.4217 25.456 28.238 20.7169L28.302 20.5923C29.0483 18.6754 29.5517 16.6695 29.7532 14.6322C29.7582 14.582 29.7632 14.5316 29.7676 14.4814C29.8264 13.5042 29.8311 12.5534 29.7563 11.6048C29.7503 11.5242 29.7431 11.4439 29.7358 11.3636C28.7799 12.2988 26.5171 14.5437 24.7327 19.2828L24.6689 19.4075C22.8843 24.1466 23.0757 27.3269 23.2032 28.6364Z" fill="#FAFCFB"/>
<g opacity="0.5" filter="url(#filter0_f_2566_76827)">
<ellipse cx="38.6168" cy="6.1585" rx="14.2828" ry="12.657" transform="rotate(-114.217 38.6168 6.1585)" fill="#21B175"/>
</g>
</g>
<path d="M61.4785 32.7273C58.3852 32.7273 56.0321 31.9359 54.4193 30.3532C52.8064 28.7586 52 26.5987 52 23.8735L57.7774 23.9092C57.7774 25.1468 58.0843 26.087 58.6982 26.7296C59.312 27.3603 60.311 27.6756 61.6952 27.6756C62.8507 27.6756 63.7654 27.4317 64.4395 26.9438C65.1255 26.4559 65.4686 25.7835 65.4686 24.9267C65.4686 23.9033 65.0413 23.1476 64.1867 22.6597C63.3442 22.1718 62.1706 21.9278 60.6661 21.9278H58.8065V17.1797H60.63C63.0372 17.1797 64.2409 16.3169 64.2409 14.5914C64.2409 13.8655 64.0062 13.3002 63.5367 12.8956C63.0794 12.491 62.4414 12.3006 61.623 12.3244C60.8286 12.3244 60.1846 12.5267 59.6912 12.9313C59.2097 13.324 58.9148 13.8774 58.8065 14.5914H53.0472C53.2518 12.3898 54.1425 10.6226 55.7192 9.28982C57.2959 7.9451 59.2879 7.27274 61.6952 7.27274C64.1987 7.27274 66.2268 7.87965 67.7795 9.09347C69.3442 10.3073 70.1266 11.9079 70.1266 13.8952C70.1266 15.2756 69.6391 16.4716 68.6642 17.4831C67.7013 18.4827 66.4134 19.1491 64.8006 19.4823C66.7745 19.7561 68.3512 20.4522 69.5308 21.5708C70.7104 22.6776 71.3001 24.0282 71.3001 25.6229C71.3001 27.9077 70.4034 29.663 68.61 30.8887C66.8166 32.1144 64.4395 32.7273 61.4785 32.7273Z" fill="#161618"/>
<path d="M82.9091 32.7273C80.1769 32.7273 77.9622 31.9478 76.2651 30.3889C74.58 28.8181 73.7375 26.795 73.7375 24.3198C73.7375 21.8326 74.1347 18.2209 74.9291 13.4846C75.242 11.6163 75.9642 10.1942 77.0956 9.21842C78.239 8.2426 79.8699 7.75469 81.9883 7.75469H86.3394V12.7885H83.198C81.898 12.7885 81.0375 12.9551 80.6162 13.2883C80.207 13.6215 79.9121 14.3474 79.7315 15.466L79.2441 18.6077C79.8579 17.8342 80.6583 17.2273 81.6453 16.787C82.6443 16.3466 83.7215 16.1265 84.877 16.1265C87.0917 16.1265 88.9152 16.8643 90.3475 18.3399C91.7918 19.8037 92.514 21.7196 92.514 24.0877C92.514 26.7415 91.6534 28.8478 89.9322 30.4067C88.2231 31.9538 85.882 32.7273 82.9091 32.7273ZM79.2802 24.3912C79.2802 25.5455 79.6051 26.4559 80.2551 27.1223C80.9051 27.7887 81.8018 28.1219 82.9452 28.1219C84.0766 28.1457 84.9793 27.8184 85.6534 27.1401C86.3274 26.4618 86.6704 25.5336 86.6825 24.3555C86.6825 23.2369 86.3454 22.3562 85.6714 21.7136C85.0094 21.0591 84.1007 20.7319 82.9452 20.7319C81.8018 20.7319 80.9051 21.0591 80.2551 21.7136C79.6051 22.3681 79.2802 23.2607 79.2802 24.3912Z" fill="#161618"/>
<path d="M104.267 32.7273C101.282 32.7273 98.9775 31.8526 97.3526 30.1033C95.7277 28.354 94.9152 25.7895 94.9152 22.4098V17.5902C94.9152 14.2106 95.7277 11.6461 97.3526 9.89673C98.9775 8.1474 101.282 7.27274 104.267 7.27274C107.313 7.27274 109.666 8.1355 111.327 9.86103C112.988 11.5866 113.818 14.1154 113.818 17.4474V22.4098C113.818 25.7895 112.982 28.354 111.309 30.1033C109.648 31.8526 107.301 32.7273 104.267 32.7273ZM100.729 22.1956C100.729 24.1948 100.988 25.611 101.505 26.444C102.035 27.2651 102.967 27.6756 104.304 27.6756C105.7 27.6756 106.669 27.2651 107.21 26.444C107.764 25.611 108.041 24.1948 108.041 22.1956V17.3582C108.041 15.5136 107.764 14.2165 107.21 13.4668C106.669 12.7052 105.7 12.3244 104.304 12.3244C102.967 12.3244 102.035 12.7052 101.505 13.4668C100.988 14.2165 100.729 15.5136 100.729 17.3582V22.1956Z" fill="#161618"/>
<defs>
<filter id="filter0_f_2566_76827" x="11.8765" y="-21.6604" width="53.4806" height="55.6377" filterUnits="userSpaceOnUse" color-interpolation-filters="sRGB">
<feFlood flood-opacity="0" result="BackgroundImageFix"/>
<feBlend mode="normal" in="SourceGraphic" in2="BackgroundImageFix" result="shape"/>
<feGaussianBlur stdDeviation="6.89633" result="effect1_foregroundBlur_2566_76827"/>
</filter>
<linearGradient id="paint0_linear_2566_76827" x1="6.17143" y1="-2.93634e-07" x2="40" y2="40" gradientUnits="userSpaceOnUse">
<stop stop-color="#0AAE6A"/>
<stop offset="1" stop-color="#15D2CB"/>
</linearGradient>
<clipPath id="clip0_2566_76827">
<path d="M0 6C0 2.68629 2.68629 0 6 0H34C37.3137 0 40 2.68629 40 6V34C40 37.3137 37.3137 40 34 40H6C2.68629 40 0 37.3137 0 34V6Z" fill="white"/>
</clipPath>
</defs>
</svg>
