<svg width="36" height="36" viewBox="0 0 36 36" fill="none" xmlns="http://www.w3.org/2000/svg">
<path d="M0 8C0 3.58172 3.58172 0 8 0H28C32.4183 0 36 3.58172 36 8V28C36 32.4183 32.4183 36 28 36H8C3.58172 36 0 32.4183 0 28V8Z" fill="#FFF1F2"/>
<path opacity="0.5" d="M12.2221 10.601C12.6667 10.304 13.1334 10.0464 13.6171 9.82976C14.989 9.21539 15.6749 8.9082 16.5875 9.4994C17.5 10.0906 17.5 11.0604 17.5 13V14.5C17.5 16.3856 17.5 17.3284 18.0858 17.9142C18.6716 18.5 19.6144 18.5 21.5 18.5H23C24.9396 18.5 25.9094 18.5 26.5006 19.4125C27.0918 20.3251 26.7846 21.011 26.1702 22.3829C25.9536 22.8666 25.696 23.3334 25.399 23.7779C24.3551 25.3402 22.8714 26.5578 21.1355 27.2769C19.3996 27.9959 17.4895 28.184 15.6467 27.8175C13.8038 27.4509 12.1111 26.5461 10.7825 25.2175C9.45389 23.8889 8.5491 22.1962 8.18254 20.3534C7.81598 18.5105 8.00412 16.6004 8.72315 14.8645C9.44218 13.1286 10.6598 11.6449 12.2221 10.601Z" fill="#FF2056"/>
<path d="M27.446 13.069C26.6342 11.0083 24.9917 9.36579 22.931 8.55398C21.3895 7.94669 20 9.34316 20 11V15C20 15.5523 20.4477 16 21 16H25C26.6569 16 28.0533 14.6106 27.446 13.069Z" fill="#FF2056"/>
</svg>
