<svg width="36" height="36" viewBox="0 0 36 36" fill="none" xmlns="http://www.w3.org/2000/svg">
<path d="M0 8C0 3.58172 3.58172 0 8 0H28C32.4183 0 36 3.58172 36 8V28C36 32.4183 32.4183 36 28 36H8C3.58172 36 0 32.4183 0 28V8Z" fill="#F0F9FF"/>
<g clip-path="url(#clip0_4207_35046)">
<path d="M30 11C30 12.6568 28.6569 14 27 14C25.3431 14 24 12.6568 24 11C24 9.34315 25.3431 8 27 8C28.6569 8 30 9.34315 30 11Z" fill="#00A6F4"/>
<path d="M23.234 13.4639L21.6974 14.7444C20.6711 15.5997 19.9586 16.1915 19.3571 16.5784C18.7748 16.9529 18.3799 17.0786 18.0003 17.0786C17.6207 17.0786 17.2259 16.9529 16.6436 16.5784C16.042 16.1915 15.3295 15.5997 14.3033 14.7444L11.9285 12.7655C11.5785 12.4738 11.0582 12.5211 10.7666 12.8711C10.4749 13.2211 10.5222 13.7413 10.8722 14.033L13.2883 16.0465C14.2633 16.859 15.0536 17.5176 15.751 17.9661C16.4776 18.4334 17.1851 18.7286 18.0003 18.7286C18.8155 18.7286 19.5231 18.4334 20.2496 17.9661C20.9471 17.5176 21.7373 16.859 22.7123 16.0465L24.3786 14.6579C23.9275 14.3341 23.5389 13.929 23.234 13.4639Z" fill="#00A6F4"/>
<path d="M24.4538 12.5872C24.7362 12.5365 25.0372 12.6349 25.234 12.8711C25.3965 13.0661 25.4538 13.314 25.4121 13.5458C25.0244 13.3034 24.696 12.975 24.4538 12.5872Z" fill="#00A6F4"/>
<path opacity="0.5" d="M22.9575 9.02099C22.1559 9 21.2436 9 20.1999 9H15.7999C11.6515 9 9.57734 9 8.28861 10.318C6.99988 11.636 6.99988 13.7574 6.99988 18C6.99988 22.2426 6.99988 24.364 8.28861 25.682C9.57734 27 11.6515 27 15.7999 27H20.1999C24.3483 27 26.4224 27 27.7112 25.682C28.9999 24.364 28.9999 22.2426 28.9999 18C28.9999 16.9326 28.9999 15.9995 28.9794 15.1797C28.382 15.4794 27.7102 15.6477 26.9999 15.6477C24.5146 15.6477 22.4999 13.5872 22.4999 11.0455C22.4999 10.319 22.6645 9.63193 22.9575 9.02099Z" fill="#00A6F4"/>
</g>
<defs>
<clipPath id="clip0_4207_35046">
<rect width="24" height="24" fill="white" transform="translate(6 6)"/>
</clipPath>
</defs>
</svg>
