<svg width="36" height="36" viewBox="0 0 36 36" fill="none" xmlns="http://www.w3.org/2000/svg">
<path d="M0 8C0 3.58172 3.58172 0 8 0H28C32.4183 0 36 3.58172 36 8V28C36 32.4183 32.4183 36 28 36H8C3.58172 36 0 32.4183 0 28V8Z" fill="#EEF2FF"/>
<path fill-rule="evenodd" clip-rule="evenodd" d="M16.2161 28.4797L16.4912 28.015C16.932 27.2703 17.1524 26.8979 17.5035 26.6902C17.8547 26.4825 18.3126 26.4678 19.2286 26.4385C20.0875 26.4111 20.6648 26.3361 21.1583 26.1317C22.1975 25.7012 23.0231 24.8756 23.4535 23.8365C23.7764 23.0571 23.7764 22.0691 23.7764 20.093V19.2448C23.7764 16.4683 23.7764 15.0801 23.1514 14.0602C22.8017 13.4896 22.3219 13.0098 21.7513 12.6601C20.7315 12.0352 19.3432 12.0352 16.5667 12.0352H14.0221C11.2456 12.0352 9.85739 12.0352 8.83757 12.6601C8.26692 13.0098 7.78714 13.4896 7.43745 14.0602C6.8125 15.0801 6.8125 16.4683 6.8125 19.2448V20.093C6.8125 22.0691 6.8125 23.0571 7.13532 23.8365C7.56576 24.8756 8.39136 25.7012 9.43052 26.1317C9.92408 26.3361 10.5013 26.4111 11.3602 26.4385C12.2762 26.4678 12.7342 26.4825 13.0853 26.6902C13.4364 26.8979 13.6568 27.2703 14.0976 28.015L14.3727 28.4797C14.7825 29.1721 15.8063 29.1721 16.2161 28.4797ZM19.0053 20.5171C19.5908 20.5171 20.0655 20.0424 20.0655 19.4568C20.0655 18.8713 19.5908 18.3966 19.0053 18.3966C18.4197 18.3966 17.945 18.8713 17.945 19.4568C17.945 20.0424 18.4197 20.5171 19.0053 20.5171ZM16.3547 19.4568C16.3547 20.0424 15.88 20.5171 15.2944 20.5171C14.7089 20.5171 14.2342 20.0424 14.2342 19.4568C14.2342 18.8713 14.7089 18.3966 15.2944 18.3966C15.88 18.3966 16.3547 18.8713 16.3547 19.4568ZM11.5836 20.5171C12.1691 20.5171 12.6438 20.0424 12.6438 19.4568C12.6438 18.8713 12.1691 18.3966 11.5836 18.3966C10.998 18.3966 10.5233 18.8713 10.5233 19.4568C10.5233 20.0424 10.998 20.5171 11.5836 20.5171Z" fill="#615FFF"/>
<path opacity="0.5" d="M21.2985 7C22.5654 6.99999 23.5728 6.99999 24.3808 7.07681C25.2092 7.15558 25.9097 7.32069 26.5337 7.70307C27.1757 8.09648 27.7154 8.63623 28.1088 9.27821C28.4912 9.90219 28.6563 10.6027 28.7351 11.4311C28.8119 12.2391 28.8119 13.2466 28.8119 14.5134V15.3787C28.8119 16.2803 28.8119 16.9975 28.7722 17.579C28.7316 18.174 28.6469 18.6848 28.4487 19.1632C27.9645 20.3323 27.0357 21.2611 25.8666 21.7453C25.8374 21.7574 25.808 21.7691 25.7785 21.7804C25.6374 21.8343 25.5164 21.8806 25.4103 21.915H23.7602C23.7764 21.416 23.7764 20.8217 23.7764 20.093V19.2448C23.7764 16.4683 23.7764 15.0801 23.1514 14.0602C22.8017 13.4896 22.3219 13.0098 21.7513 12.6601C20.7315 12.0352 19.3432 12.0352 16.5667 12.0352H14.0221C13.0367 12.0352 12.2262 12.0352 11.5449 12.0631V10.4127C11.5776 10.2993 11.6225 10.1694 11.6751 10.0169C11.7645 9.75751 11.8776 9.51219 12.021 9.27821C12.4144 8.63623 12.9541 8.09648 13.5961 7.70307C14.2201 7.32069 14.9206 7.15558 15.749 7.07681C16.557 6.99999 17.5644 6.99999 18.8313 7H21.2985Z" fill="#615FFF"/>
</svg>
