<svg width="100%" height="100%" viewBox="0 0 36 36" fill="none" xmlns="http://www.w3.org/2000/svg">
<path opacity="0.5" d="M8.49982 12.5C8.49982 10.6144 8.49982 9.67157 9.08561 9.08579C9.67139 8.5 10.6142 8.5 12.4998 8.5C14.3854 8.5 15.3282 8.5 15.914 9.08579C16.4998 9.67157 16.4998 10.6144 16.4998 12.5C16.4998 14.3856 16.4998 15.3284 15.914 15.9142C15.3282 16.5 14.3854 16.5 12.4998 16.5C10.6142 16.5 9.67139 16.5 9.08561 15.9142C8.49982 15.3284 8.49982 14.3856 8.49982 12.5Z" fill="currentColor"/>
<path opacity="0.5" d="M19.5001 23.5001C19.5001 21.6145 19.5001 20.6717 20.0859 20.0859C20.6717 19.5001 21.6145 19.5001 23.5001 19.5001C25.3857 19.5001 26.3285 19.5001 26.9143 20.0859C27.5001 20.6717 27.5001 21.6145 27.5001 23.5001C27.5001 25.3857 27.5001 26.3285 26.9143 26.9143C26.3285 27.5001 25.3857 27.5001 23.5001 27.5001C21.6145 27.5001 20.6717 27.5001 20.0859 26.9143C19.5001 26.3285 19.5001 25.3857 19.5001 23.5001Z" fill="currentColor"/>
<path d="M8.49982 23.5001C8.49982 21.6145 8.49982 20.6717 9.08561 20.0859C9.67139 19.5001 10.6142 19.5001 12.4998 19.5001C14.3854 19.5001 15.3282 19.5001 15.914 20.0859C16.4998 20.6717 16.4998 21.6145 16.4998 23.5001C16.4998 25.3857 16.4998 26.3285 15.914 26.9143C15.3282 27.5001 14.3854 27.5001 12.4998 27.5001C10.6142 27.5001 9.67139 27.5001 9.08561 26.9143C8.49982 26.3285 8.49982 25.3857 8.49982 23.5001Z" fill="currentColor"/>
<path d="M19.5001 12.5C19.5001 10.6144 19.5001 9.67157 20.0859 9.08579C20.6717 8.5 21.6145 8.5 23.5001 8.5C25.3857 8.5 26.3285 8.5 26.9143 9.08579C27.5001 9.67157 27.5001 10.6144 27.5001 12.5C27.5001 14.3856 27.5001 15.3284 26.9143 15.9142C26.3285 16.5 25.3857 16.5 23.5001 16.5C21.6145 16.5 20.6717 16.5 20.0859 15.9142C19.5001 15.3284 19.5001 14.3856 19.5001 12.5Z" fill="currentColor"/>
</svg>
