<svg width="100%" height="100%" viewBox="0 0 24 24" fill="none" xmlns="http://www.w3.org/2000/svg">
<path d="M9.1071 5.44761C9.7051 3.69761 12.1231 3.64461 12.8321 5.28861L12.8921 5.44861L13.6991 7.80861C13.884 8.34984 14.1829 8.84512 14.5755 9.26103C14.9682 9.67694 15.4454 10.0038 15.9751 10.2196L16.1921 10.3006L18.5521 11.1066C20.3021 11.7046 20.3551 14.1226 18.7121 14.8316L18.5521 14.8916L16.1921 15.6986C15.6507 15.8834 15.1552 16.1822 14.7391 16.5749C14.323 16.9675 13.996 17.4448 13.7801 17.9746L13.6991 18.1906L12.8931 20.5516C12.2951 22.3016 9.8771 22.3546 9.1691 20.7116L9.1071 20.5516L8.3011 18.1916C8.11628 17.6502 7.81748 17.1547 7.42485 16.7386C7.03222 16.3225 6.5549 15.9955 6.0251 15.7796L5.8091 15.6986L3.4491 14.8926C1.6981 14.2946 1.6451 11.8766 3.2891 11.1686L3.4491 11.1066L5.8091 10.3006C6.35034 10.1157 6.84562 9.8168 7.26153 9.42418C7.67744 9.03155 8.00432 8.5543 8.2201 8.02461L8.3011 7.80861L9.1071 5.44761Z" fill="currentColor"/>
<path opacity="0.5" d="M19.5305 3.15147C19.3717 3.05248 19.1884 3 19.0013 3C18.7926 2.99987 18.589 3.06509 18.4192 3.1865C18.2493 3.30791 18.1217 3.47943 18.0543 3.677L17.7043 4.704L16.6783 5.054L16.5603 5.102C16.3825 5.18906 16.2345 5.32696 16.1351 5.49821C16.0357 5.66947 15.9894 5.86638 16.002 6.06398C16.0147 6.26158 16.0857 6.45099 16.2061 6.60819C16.3265 6.76539 16.4908 6.88331 16.6783 6.947L17.7053 7.297L18.0553 8.323L18.1033 8.44C18.1903 8.61787 18.3281 8.76591 18.4993 8.86538C18.6705 8.96484 18.8674 9.01125 19.065 8.99872C19.2626 8.98619 19.452 8.91529 19.6092 8.79499C19.7665 8.6747 19.8845 8.51043 19.9483 8.323L20.2983 7.296L21.3243 6.946L21.4423 6.898C21.6202 6.81094 21.7681 6.67304 21.8675 6.50179C21.9669 6.33053 22.0132 6.13362 22.0006 5.93602C21.988 5.73842 21.9169 5.54902 21.7965 5.39182C21.6762 5.23462 21.5118 5.1167 21.3243 5.053L20.2973 4.703L19.9473 3.677L19.8993 3.56C19.817 3.392 19.6892 3.25046 19.5305 3.15147Z" fill="currentColor"/>
</svg>
