<svg width="100%" height="100%" viewBox="0 0 24 24" fill="none" xmlns="http://www.w3.org/2000/svg">
<path opacity="0.5" d="M2.99963 9.99988C2.99963 6.22864 2.99963 4.34303 4.1712 3.17145C5.34278 1.99988 7.22839 1.99988 10.9996 1.99988H12.9996C16.7708 1.99988 18.6565 1.99988 19.828 3.17145C20.9996 4.34303 20.9996 6.22864 20.9996 9.99988V13.9999C20.9996 17.7711 20.9996 19.6568 19.828 20.8283C18.6565 21.9999 16.7708 21.9999 12.9996 21.9999H10.9996C7.22839 21.9999 5.34278 21.9999 4.1712 20.8283C2.99963 19.6568 2.99963 17.7711 2.99963 13.9999V9.99988Z" fill="currentColor"/>
<path fill-rule="evenodd" clip-rule="evenodd" d="M7.24988 11.9999C7.24988 11.5857 7.58567 11.2499 7.99988 11.2499H15.9999C16.4141 11.2499 16.7499 11.5857 16.7499 11.9999C16.7499 12.4141 16.4141 12.7499 15.9999 12.7499H7.99988C7.58567 12.7499 7.24988 12.4141 7.24988 11.9999Z" fill="currentColor"/>
<path fill-rule="evenodd" clip-rule="evenodd" d="M7.24988 7.99988C7.24988 7.58567 7.58567 7.24988 7.99988 7.24988H15.9999C16.4141 7.24988 16.7499 7.58567 16.7499 7.99988C16.7499 8.41409 16.4141 8.74988 15.9999 8.74988H7.99988C7.58567 8.74988 7.24988 8.41409 7.24988 7.99988Z" fill="currentColor"/>
<path fill-rule="evenodd" clip-rule="evenodd" d="M7.24988 15.9999C7.24988 15.5857 7.58567 15.2499 7.99988 15.2499H12.9999C13.4141 15.2499 13.7499 15.5857 13.7499 15.9999C13.7499 16.4141 13.4141 16.7499 12.9999 16.7499H7.99988C7.58567 16.7499 7.24988 16.4141 7.24988 15.9999Z" fill="currentColor"/>
</svg>
