<svg width="24" height="24" viewBox="0 0 24 24" fill="none" xmlns="http://www.w3.org/2000/svg">
<g clip-path="url(#clip0_4202_37379)">
<path d="M24 5C24 6.65685 22.6569 8 21 8C19.3431 8 18 6.65685 18 5C18 3.34315 19.3431 2 21 2C22.6569 2 24 3.34315 24 5Z" fill="#00A6F4"/>
<path d="M17.234 7.46394L15.6974 8.74444C14.6711 9.59966 13.9586 10.1915 13.3571 10.5784C12.7748 10.9529 12.3799 11.0786 12.0003 11.0786C11.6207 11.0786 11.2259 10.9529 10.6436 10.5784C10.042 10.1915 9.32953 9.59966 8.30327 8.74444L5.92849 6.76546C5.57846 6.47377 5.05824 6.52106 4.76655 6.87109C4.47486 7.22112 4.52216 7.74133 4.87218 8.03302L7.28833 10.0465C8.26332 10.859 9.05356 11.5176 9.75103 11.9661C10.4776 12.4334 11.1851 12.7286 12.0003 12.7286C12.8155 12.7286 13.5231 12.4334 14.2496 11.9661C14.9471 11.5176 15.7373 10.859 16.7123 10.0465L18.3786 8.65795C17.9275 8.33414 17.5389 7.92898 17.234 7.46394Z" fill="#00A6F4"/>
<path d="M18.4539 6.58719C18.7363 6.53653 19.0373 6.63487 19.2341 6.87109C19.3966 7.06614 19.4539 7.31403 19.4122 7.54579C19.0245 7.30344 18.6961 6.97499 18.4539 6.58719Z" fill="#00A6F4"/>
<path opacity="0.5" d="M16.9575 3.02099C16.1559 3 15.2436 3 14.1999 3H9.79988C5.65152 3 3.57734 3 2.28861 4.31802C0.999878 5.63604 0.999878 7.75736 0.999878 12C0.999878 16.2426 0.999878 18.364 2.28861 19.682C3.57734 21 5.65152 21 9.79988 21H14.1999C18.3483 21 20.4224 21 21.7112 19.682C22.9999 18.364 22.9999 16.2426 22.9999 12C22.9999 10.9326 22.9999 9.99953 22.9794 9.1797C22.382 9.47943 21.7102 9.64773 20.9999 9.64773C18.5146 9.64773 16.4999 7.58722 16.4999 5.04545C16.4999 4.31904 16.6645 3.63193 16.9575 3.02099Z" fill="#00A6F4"/>
</g>
<defs>
<clipPath id="clip0_4202_37379">
<rect width="24" height="24" fill="white"/>
</clipPath>
</defs>
</svg>
