<svg width="24" height="24" viewBox="0 0 24 24" fill="none" xmlns="http://www.w3.org/2000/svg">
<path fill-rule="evenodd" clip-rule="evenodd" d="M10.2161 22.4797L10.4912 22.015C10.932 21.2703 11.1524 20.8979 11.5035 20.6902C11.8547 20.4825 12.3126 20.4678 13.2286 20.4385C14.0875 20.4111 14.6648 20.3361 15.1583 20.1317C16.1975 19.7012 17.0231 18.8756 17.4535 17.8365C17.7764 17.0571 17.7764 16.0691 17.7764 14.093V13.2448C17.7764 10.4683 17.7764 9.08006 17.1514 8.06023C16.8017 7.48958 16.3219 7.0098 15.7513 6.66011C14.7315 6.03516 13.3432 6.03516 10.5667 6.03516H8.02214C5.24564 6.03516 3.85739 6.03516 2.83757 6.66011C2.26692 7.0098 1.78714 7.48958 1.43745 8.06023C0.8125 9.08006 0.8125 10.4683 0.8125 13.2448V14.093C0.8125 16.0691 0.8125 17.0571 1.13532 17.8365C1.56576 18.8756 2.39136 19.7012 3.43052 20.1317C3.92408 20.3361 4.50132 20.4111 5.3602 20.4385C6.27618 20.4678 6.73417 20.4825 7.08528 20.6902C7.4364 20.8979 7.65681 21.2703 8.09764 22.015L8.3727 22.4797C8.78252 23.1721 9.8063 23.1721 10.2161 22.4797ZM13.0053 14.5171C13.5908 14.5171 14.0655 14.0424 14.0655 13.4568C14.0655 12.8713 13.5908 12.3966 13.0053 12.3966C12.4197 12.3966 11.945 12.8713 11.945 13.4568C11.945 14.0424 12.4197 14.5171 13.0053 14.5171ZM10.3547 13.4568C10.3547 14.0424 9.88 14.5171 9.29443 14.5171C8.70887 14.5171 8.23419 14.0424 8.23419 13.4568C8.23419 12.8713 8.70887 12.3966 9.29443 12.3966C9.88 12.3966 10.3547 12.8713 10.3547 13.4568ZM5.58358 14.5171C6.16914 14.5171 6.64383 14.0424 6.64383 13.4568C6.64383 12.8713 6.16914 12.3966 5.58358 12.3966C4.99803 12.3966 4.52334 12.8713 4.52334 13.4568C4.52334 14.0424 4.99803 14.5171 5.58358 14.5171Z" fill="#615FFF"/>
<path opacity="0.5" d="M15.2985 1C16.5654 0.999992 17.5728 0.999986 18.3808 1.07681C19.2092 1.15558 19.9097 1.32069 20.5337 1.70307C21.1757 2.09648 21.7154 2.63623 22.1088 3.27821C22.4912 3.90219 22.6563 4.60265 22.7351 5.43112C22.8119 6.23907 22.8119 7.24658 22.8119 8.51343V9.37869C22.8119 10.2803 22.8119 10.9975 22.7722 11.579C22.7316 12.174 22.6469 12.6848 22.4487 13.1632C21.9645 14.3323 21.0357 15.2611 19.8666 15.7453C19.8374 15.7574 19.808 15.7691 19.7785 15.7804C19.6374 15.8343 19.5164 15.8806 19.4103 15.915H17.7602C17.7764 15.416 17.7764 14.8217 17.7764 14.093V13.2448C17.7764 10.4683 17.7764 9.08006 17.1514 8.06023C16.8017 7.48958 16.3219 7.0098 15.7513 6.66011C14.7315 6.03516 13.3432 6.03516 10.5667 6.03516H8.02214C7.03673 6.03516 6.22619 6.03516 5.54492 6.06309V4.4127C5.57763 4.29934 5.62245 4.16941 5.67505 4.0169C5.76452 3.75751 5.87759 3.51219 6.02098 3.27821C6.41438 2.63623 6.95413 2.09648 7.59611 1.70307C8.22009 1.32069 8.92055 1.15558 9.74901 1.07681C10.557 0.999986 11.5644 0.999992 12.8313 1H15.2985Z" fill="#615FFF"/>
</svg>
