<svg width="100%" height="100%" viewBox="0 0 24 24" fill="none" xmlns="http://www.w3.org/2000/svg">
<path opacity="0.5" d="M9.95016 16.05C10.8812 15.1189 11.3467 14.6534 11.9215 14.6231C11.9741 14.6203 12.0267 14.6203 12.0793 14.6231C12.6541 14.6534 13.1196 15.1189 14.0507 16.05C16.0765 18.0758 17.0894 19.0887 16.8059 19.9627C16.7815 20.0378 16.7512 20.1109 16.7153 20.1812C16.2979 20.9997 14.8654 20.9997 12.0004 20.9997C9.13543 20.9997 7.70294 20.9997 7.2855 20.1812C7.24961 20.1109 7.21934 20.0378 7.19497 19.9627C6.91139 19.0887 7.92432 18.0758 9.95016 16.05Z" stroke="currentColor" stroke-width="1.125"/>
<path fill-rule="evenodd" clip-rule="evenodd" d="M14 3C17.7711 3 19.6566 3.00032 20.8281 4.17188C21.9996 5.34346 22 7.22884 22 11C22 14.7711 21.9997 16.6566 20.8281 17.8281C20.02 18.6363 18.8722 18.8871 17 18.9648L6.44336 18.9355C4.89447 18.8301 3.89671 18.5529 3.17188 17.8281C2.00031 16.6566 2 14.7712 2 11C2 7.22876 2.00031 5.34345 3.17188 4.17188C4.34346 3.00037 6.22883 3 10 3H14ZM11.501 8.72168C11.3472 8.58329 11.1103 8.5955 10.9717 8.74902C10.8332 8.90287 10.8454 9.13974 10.999 9.27832L11.8477 10.042C12.2415 10.3965 12.5067 10.6373 12.6787 10.8418C12.8437 11.0379 12.8798 11.1524 12.8799 11.25C12.8799 11.3477 12.8436 11.4621 12.6787 11.6582C12.5067 11.8627 12.2414 12.1036 11.8477 12.458L10.999 13.2217C10.8454 13.3602 10.8333 13.5971 10.9717 13.751C11.1103 13.9047 11.3471 13.9168 11.501 13.7783L12.3486 13.0156C12.7258 12.6761 13.0394 12.3954 13.2529 12.1416C13.4734 11.8795 13.6299 11.5976 13.6299 11.25C13.6298 10.9024 13.4734 10.6205 13.2529 10.3584C13.0393 10.1045 12.7259 9.82392 12.3486 9.48438L11.501 8.72168Z" fill="currentColor"/>
</svg>
