<svg width="24" height="24" viewBox="0 0 24 24" fill="none" xmlns="http://www.w3.org/2000/svg">
<path opacity="0.5" d="M2.49982 6.5C2.49982 4.61438 2.49982 3.67157 3.08561 3.08579C3.67139 2.5 4.6142 2.5 6.49982 2.5C8.38544 2.5 9.32825 2.5 9.91403 3.08579C10.4998 3.67157 10.4998 4.61438 10.4998 6.5C10.4998 8.38562 10.4998 9.32843 9.91403 9.91421C9.32825 10.5 8.38544 10.5 6.49982 10.5C4.6142 10.5 3.67139 10.5 3.08561 9.91421C2.49982 9.32843 2.49982 8.38562 2.49982 6.5Z" fill="#00B8DB"/>
<path opacity="0.5" d="M13.5001 17.5001C13.5001 15.6145 13.5001 14.6717 14.0859 14.0859C14.6717 13.5001 15.6145 13.5001 17.5001 13.5001C19.3857 13.5001 20.3285 13.5001 20.9143 14.0859C21.5001 14.6717 21.5001 15.6145 21.5001 17.5001C21.5001 19.3857 21.5001 20.3285 20.9143 20.9143C20.3285 21.5001 19.3857 21.5001 17.5001 21.5001C15.6145 21.5001 14.6717 21.5001 14.0859 20.9143C13.5001 20.3285 13.5001 19.3857 13.5001 17.5001Z" fill="#00B8DB"/>
<path d="M2.49982 17.5001C2.49982 15.6145 2.49982 14.6717 3.08561 14.0859C3.67139 13.5001 4.6142 13.5001 6.49982 13.5001C8.38544 13.5001 9.32825 13.5001 9.91403 14.0859C10.4998 14.6717 10.4998 15.6145 10.4998 17.5001C10.4998 19.3857 10.4998 20.3285 9.91403 20.9143C9.32825 21.5001 8.38544 21.5001 6.49982 21.5001C4.6142 21.5001 3.67139 21.5001 3.08561 20.9143C2.49982 20.3285 2.49982 19.3857 2.49982 17.5001Z" fill="#00B8DB"/>
<path d="M13.5001 6.5C13.5001 4.61438 13.5001 3.67157 14.0859 3.08579C14.6717 2.5 15.6145 2.5 17.5001 2.5C19.3857 2.5 20.3285 2.5 20.9143 3.08579C21.5001 3.67157 21.5001 4.61438 21.5001 6.5C21.5001 8.38562 21.5001 9.32843 20.9143 9.91421C20.3285 10.5 19.3857 10.5 17.5001 10.5C15.6145 10.5 14.6717 10.5 14.0859 9.91421C13.5001 9.32843 13.5001 8.38562 13.5001 6.5Z" fill="#00B8DB"/>
</svg>
