<svg width="100%" height="100%" viewBox="0 0 24 24" fill="none" xmlns="http://www.w3.org/2000/svg">
<path d="M4.97883 9.6852C2.99294 8.89085 2 8.49367 2 8.00012C2 7.50657 2.99294 7.10939 4.97883 6.31504L7.7873 5.19165C9.77318 4.3973 10.7661 4.00012 12 4.00012C13.2339 4.00012 14.2268 4.3973 16.2127 5.19165L19.0212 6.31504C21.0071 7.10939 22 7.50657 22 8.00012C22 8.49367 21.0071 8.89085 19.0212 9.6852L16.2127 10.8086C14.2268 11.6029 13.2339 12.0001 12 12.0001C10.7661 12.0001 9.77318 11.6029 7.7873 10.8086L4.97883 9.6852Z" fill="currentColor"/>
<path fill-rule="evenodd" clip-rule="evenodd" d="M2 8.00012C2 8.49367 2.99294 8.89085 4.97883 9.6852L7.7873 10.8086C9.77318 11.6029 10.7661 12.0001 12 12.0001C13.2339 12.0001 14.2268 11.6029 16.2127 10.8086L19.0212 9.6852C21.0071 8.89085 22 8.49367 22 8.00012C22 7.50657 21.0071 7.10939 19.0212 6.31504L16.2127 5.19165C14.2268 4.3973 13.2339 4.00012 12 4.00012C10.7661 4.00012 9.77318 4.3973 7.7873 5.19165L4.97883 6.31504C2.99294 7.10939 2 7.50657 2 8.00012Z" fill="currentColor"/>
<path opacity="0.7" d="M5.76613 10.0001L4.97883 10.315C2.99294 11.1094 2 11.5066 2 12.0001C2 12.4936 2.99294 12.8908 4.97883 13.6852L7.7873 14.8086C9.77318 15.6029 10.7661 16.0001 12 16.0001C13.2339 16.0001 14.2268 15.6029 16.2127 14.8086L19.0212 13.6852C21.0071 12.8908 22 12.4936 22 12.0001C22 11.5066 21.0071 11.1094 19.0212 10.315L18.2339 10.0001L16.2127 10.8086C14.2268 11.6029 13.2339 12.0001 12 12.0001C10.7661 12.0001 9.77318 11.6029 7.7873 10.8086L5.76613 10.0001Z" fill="currentColor"/>
<path opacity="0.4" d="M5.76613 14.0001L4.97883 14.315C2.99294 15.1094 2 15.5066 2 16.0001C2 16.4936 2.99294 16.8908 4.97883 17.6852L7.7873 18.8086C9.77318 19.6029 10.7661 20.0001 12 20.0001C13.2339 20.0001 14.2268 19.6029 16.2127 18.8086L19.0212 17.6852C21.0071 16.8908 22 16.4936 22 16.0001C22 15.5066 21.0071 15.1094 19.0212 14.315L18.2339 14.0001L16.2127 14.8086C14.2268 15.6029 13.2339 16.0001 12 16.0001C10.7661 16.0001 9.77318 15.6029 7.7873 14.8086L5.76613 14.0001Z" fill="currentColor"/>
</svg>
